<?xml version="1.0" encoding="utf-8"?>
<!-- Generator: Adobe Illustrator 25.2.3, SVG Export Plug-In . SVG Version: 6.00 Build 0)  -->
<svg version="1.1" id="Layer_1" xmlns="http://www.w3.org/2000/svg" xmlns:xlink="http://www.w3.org/1999/xlink" x="0px" y="0px"
	 viewBox="0 0 198.2 66" style="enable-background:new 0 0 198.2 66;" xml:space="preserve">
<style type="text/css">
	.st0{fill:#C11718;}
	.st1{fill:#EA5880;}
</style>
<g>
	<g>
		<g>
			<path d="M86,32.3h-2.2L81.2,24l-2.5,8.3h-2.2l-3.7-13.7h2.8l2.1,8.6l2.5-8.6h2l2.5,8.6l2.1-8.6h2.8L86,32.3z"/>
			<path d="M91.4,32.3V18.6h9.1V21h-6.4v3.2h5.4v2.4h-5.4v3.3h6.4v2.4H91.4z"/>
			<path d="M108.9,32.3h-5.8V18.6h5.5c2.7,0,4.3,1.5,4.3,3.9c0,1.5-1,2.5-1.7,2.8c0.8,0.4,1.9,1.3,1.9,3.1
				C113.1,31,111.3,32.3,108.9,32.3z M108.4,21h-2.6v3.2h2.6c1.1,0,1.8-0.6,1.8-1.6C110.2,21.6,109.6,21,108.4,21z M108.6,26.6h-2.8
				v3.4h2.8c1.2,0,1.8-0.8,1.8-1.7C110.4,27.3,109.8,26.6,108.6,26.6z"/>
			<path d="M127.7,32.3v-5.7H123v5.7h-2.7V18.6h2.7v5.6h4.7v-5.6h2.7v13.7H127.7z"/>
			<path d="M141.9,31c-1,1-2.1,1.5-3.7,1.5c-1.6,0-2.8-0.5-3.7-1.5c-1.4-1.4-1.4-3.1-1.4-5.5c0-2.4,0-4.1,1.4-5.5
				c1-1,2.2-1.5,3.7-1.5c1.6,0,2.7,0.5,3.7,1.5c1.4,1.4,1.4,3.1,1.4,5.5C143.3,27.8,143.3,29.6,141.9,31z M139.9,21.6
				c-0.4-0.4-1-0.7-1.7-0.7c-0.7,0-1.4,0.3-1.7,0.7c-0.5,0.6-0.7,1.2-0.7,3.9s0.1,3.3,0.7,3.9c0.4,0.4,1,0.7,1.7,0.7
				c0.7,0,1.3-0.3,1.7-0.7c0.5-0.6,0.7-1.2,0.7-3.9S140.4,22.2,139.9,21.6z"/>
			<path d="M149.8,32.5c-2.1,0-3.7-0.4-5-1.8l1.7-1.7c0.9,0.9,2,1.2,3.3,1.2c1.6,0,2.4-0.6,2.4-1.7c0-0.5-0.1-0.9-0.4-1.2
				c-0.3-0.3-0.6-0.4-1.2-0.5l-1.7-0.2c-1.2-0.2-2-0.5-2.7-1.1c-0.7-0.7-1-1.5-1-2.7c0-2.4,1.8-4.2,4.8-4.2c1.9,0,3.3,0.5,4.4,1.6
				l-1.7,1.7c-0.9-0.8-1.9-0.9-2.8-0.9c-1.4,0-2.1,0.8-2.1,1.7c0,0.3,0.1,0.7,0.4,1c0.3,0.2,0.7,0.5,1.3,0.5l1.6,0.2
				c1.3,0.2,2,0.5,2.6,1.1c0.7,0.7,1.1,1.7,1.1,2.9C154.9,31,152.7,32.5,149.8,32.5z"/>
			<path d="M162.7,21v11.3H160V21h-3.6v-2.4h9.9V21H162.7z"/>
			<path d="M168.5,32.3V18.6h2.7v13.7H168.5z"/>
			<path d="M182.5,32.3l-5.5-8.4v8.4h-2.7V18.6h2.4l5.5,8.4v-8.4h2.7v13.7H182.5z"/>
			<path d="M195.6,30.9c-1,1-2.3,1.6-3.8,1.6c-1.5,0-2.7-0.5-3.7-1.5c-1.4-1.4-1.4-3.1-1.4-5.5c0-2.4,0-4.1,1.4-5.5
				c1-1,2.2-1.5,3.7-1.5c1.9,0,3,0.5,4.2,1.8l-1.8,1.8c-0.8-0.8-1.3-1.2-2.4-1.2c-0.7,0-1.3,0.3-1.7,0.7c-0.5,0.6-0.7,1.2-0.7,3.9
				s0.1,3.3,0.7,3.9c0.4,0.4,1,0.7,1.7,0.7c0.8,0,1.4-0.3,1.8-0.8c0.4-0.5,0.6-1.2,0.6-1.9v-0.5h-2.4v-2.2h5.1v2
				C196.9,28.7,196.5,29.9,195.6,30.9z"/>
			<path d="M81.1,51.3c-0.6,0.3-1.3,0.5-2.2,0.5c-0.7,0-1.3-0.1-1.9-0.4c-0.6-0.2-1.1-0.6-1.6-1.1c-0.3-0.3-0.6-0.7-0.7-1
				c-0.2-0.3-0.3-0.7-0.4-1.2c-0.1-0.4-0.1-0.9-0.1-1.5c0-0.5,0-1.2,0-1.9c0-0.7,0-1.4,0-1.9c0-0.5,0.1-1,0.1-1.5
				c0.1-0.4,0.2-0.8,0.4-1.2c0.2-0.3,0.4-0.7,0.7-1c0.5-0.5,1-0.8,1.6-1.1c0.6-0.2,1.2-0.4,1.9-0.4c0.9,0,1.6,0.2,2.2,0.5
				c0.6,0.3,1.2,0.7,1.7,1.2l-1,1c-0.4-0.4-0.8-0.7-1.3-1c-0.4-0.2-1-0.4-1.6-0.4c-0.5,0-0.9,0.1-1.3,0.3c-0.4,0.2-0.8,0.4-1.1,0.7
				c-0.2,0.2-0.4,0.5-0.5,0.7c-0.1,0.3-0.2,0.6-0.3,0.9c-0.1,0.4-0.1,0.8-0.1,1.3c0,0.5,0,1.1,0,1.8c0,0.7,0,1.3,0,1.8
				c0,0.5,0.1,0.9,0.1,1.3c0.1,0.4,0.2,0.7,0.3,0.9c0.1,0.3,0.3,0.5,0.5,0.7c0.3,0.3,0.7,0.5,1.1,0.7c0.4,0.2,0.9,0.2,1.3,0.2
				c0.7,0,1.2-0.1,1.6-0.4c0.4-0.2,0.8-0.6,1.3-1l1,1C82.3,50.5,81.7,51,81.1,51.3z"/>
			<path d="M93.8,51.6l-1.1-3.1h-6l-1.1,3.1H84L89,37.9h1.2l5,13.7H93.8z M89.7,40l-2.6,7.2h5.1L89.7,40z"/>
			<path d="M106.3,51.6l-7.3-11v11h-1.5V37.9h1.4l7.3,11v-11h1.5v13.7H106.3z"/>
			<path d="M119.7,51.6l-1.1-3.1h-6l-1.1,3.1h-1.6l5.1-13.7h1.2l5,13.7H119.7z M115.6,40l-2.6,7.2h5.1L115.6,40z"/>
			<path d="M133,46.1c0,0.5,0,1-0.1,1.5c-0.1,0.5-0.2,1-0.4,1.5c-0.2,0.5-0.5,0.9-0.8,1.2c-0.4,0.4-0.9,0.7-1.5,0.9
				c-0.6,0.2-1.2,0.3-2,0.3h-4.7V37.9h4.7c0.7,0,1.4,0.1,2,0.3c0.6,0.2,1.1,0.5,1.5,0.9c0.4,0.4,0.6,0.8,0.8,1.2
				c0.2,0.4,0.3,0.9,0.4,1.3c0.1,0.5,0.1,1,0.1,1.4c0,0.5,0,1,0,1.5C133.1,45.1,133,45.6,133,46.1z M131.6,43.3c0-0.4,0-0.8-0.1-1.2
				c-0.1-0.4-0.1-0.7-0.3-1.1c-0.1-0.3-0.3-0.6-0.5-0.9c-0.4-0.4-0.8-0.6-1.2-0.8c-0.5-0.1-0.9-0.2-1.5-0.2h-3v11.1h3
				c0.5,0,1-0.1,1.5-0.2c0.5-0.1,0.9-0.4,1.2-0.8c0.2-0.2,0.4-0.5,0.5-0.9c0.1-0.4,0.2-0.8,0.3-1.2c0.1-0.4,0.1-0.9,0.1-1.3
				c0-0.4,0-0.9,0-1.3C131.6,44.2,131.6,43.7,131.6,43.3z"/>
			<path d="M144.3,51.6l-1.1-3.1h-6l-1.1,3.1h-1.6l5.1-13.7h1.2l5,13.7H144.3z M140.3,40l-2.6,7.2h5.1L140.3,40z"/>
		</g>
	</g>
	<g>
		<path class="st0" d="M11.2,9.4c3.7-2,8.2-2.8,12-3c0-2,0-3.5,0.1-4.3C18.7,3.6,14.6,6.1,11.2,9.4z"/>
		<path class="st0" d="M10.1,33.6c0-0.6,0.2-1.1,0.5-1.6c-2.7-3.5-5.7-8.6-6.1-13.7c-2.2,4.3-3.4,9.2-3.4,14.4
			c0,6.6,2,12.8,5.4,17.9c0.3-2,1.3-7.9,4.5-14.9C10.5,35.2,10.1,34.5,10.1,33.6z"/>
		<path class="st0" d="M43.1,51.3c0,0.1-0.1,0.2-0.2,0.3c4.7,4.5,8.7,6.7,9.7,7.2c3.8-2.9,6.9-6.7,9.1-11
			C59.3,49.1,52.6,52.3,43.1,51.3z"/>
		<path class="st0" d="M41.9,52.6C41.5,52.8,41,53,40.4,53c-1.5,0-2.8-1.2-2.8-2.7c-6.7-1.8-14.5-5.7-22.9-13.5c0,0-0.2-0.2-0.6-0.6
			c-0.4,0.2-0.8,0.3-1.2,0.3c-0.1,0-0.2,0-0.3,0c-2.1,4.6-3.8,9.8-5,15.8C13.6,60,23,65.1,33.6,65.1c6.5,0,12.6-1.9,17.7-5.2
			C47.7,57.6,44.6,55.2,41.9,52.6z"/>
		<path class="st0" d="M49.2,5.4c-1.5,0.3-4.2,1-7.5,2.4c0.1,0.3,0.1,0.5,0.1,0.8c0,0.2,0,0.4-0.1,0.6C53.6,13,60.3,19.3,64,24.9
			C61.8,16.7,56.4,9.7,49.2,5.4z"/>
		<path class="st0" d="M26.9,14.8c2.7-2.1,5.8-4.1,9.3-5.8c0-0.1,0-0.2,0-0.3C32,7.7,28.3,7.4,25,7.5c0,2.4,0.2,4.6,0.4,6.8
			C26,14.3,26.5,14.5,26.9,14.8z"/>
		<path class="st0" d="M64.8,28.8c-3.9-7.3-10.7-11.7-10.7-11.7c-4.5-3.1-8.8-5.3-12.8-6.8c-0.5,0.7-1.3,1.1-2.2,1.1
			c-1,0-1.8-0.5-2.4-1.3c-2.8,1.5-5.8,3.4-8.8,5.8c0.2,0.4,0.3,0.7,0.3,1.2c0,1.2-0.8,2.3-1.9,2.7c2.4,12.6,7.7,21.6,13,27.9
			c0.4-0.2,0.8-0.3,1.2-0.3c1.4,0,2.6,1,2.8,2.4c5.3,0.7,13.3,0.6,19.5-4.4c1.5-3.7,2.3-7.8,2.3-12.1C65.1,31.7,65,30.2,64.8,28.8z"
			/>
		<path class="st0" d="M39,5.8c0.9,0,1.6,0.4,2.2,1c2.1-0.8,4.2-1.5,6.5-2.2c-4.5-2.4-9.6-3.7-15.1-3.7c-2.6,0-5.2,0.3-7.6,0.9
			c-0.1,1.5-0.1,3.1-0.1,4.5c3.4-0.1,5.9,0.3,5.9,0.3c1.9,0.3,3.8,0.7,5.5,1.1C36.7,6.6,37.8,5.8,39,5.8z"/>
		<path class="st0" d="M23.8,14.7c-0.3-2.7-0.5-5.1-0.6-7.1c-9.2,0.8-14.5,4.9-14.5,4.9s-0.3,0.2-0.7,0.3c-0.9,1.1-1.7,2.3-2.4,3.5
			c0.1,1.8,1,8,5.8,14.9c0.4-0.3,0.9-0.4,1.5-0.4c0.2,0,0.4,0,0.6,0.1c2.3-4.1,5.4-8.3,9.4-12.2c-0.3-0.4-0.5-1-0.5-1.5
			C22.4,16.1,23,15.2,23.8,14.7z"/>
		<path class="st0" d="M38.1,48.6c-7.9-9.3-11.7-19.9-13.4-28.7c-0.2,0-0.4-0.1-0.5-0.2c-3.3,3.3-6.4,7.2-9.1,12
			c0.5,0.5,0.8,1.2,0.8,1.9c0,0.7-0.3,1.4-0.7,1.9c4.7,4.9,11.7,9.7,22.3,12.9C37.4,48.4,37.6,48.5,38.1,48.6
			C38.1,48.6,38.1,48.6,38.1,48.6z"/>
	</g>
</g>
<g>
	<g>
		<g>
			<path class="st1" d="M152.5,46.8C152.5,46.8,152.5,46.8,152.5,46.8c0.1,0,0.1-0.1,0.1-0.1c0.3-0.9,0.5-1.7,0.8-2.6
				c0-0.1,0-0.2-0.1-0.2c-0.7-0.4-1.5-0.8-2.2-1.3c-0.6-0.4-1.1-0.8-1.5-1.3c-0.1-0.1-0.1-0.1,0-0.2c0.4-0.6,1-1,1.6-1.4
				c0.6-0.4,1.2-0.6,1.9-0.7c0.5-0.1,1-0.1,1.5-0.1c0.1,0,0.1,0,0.1,0.1c0,0.4,0,0.9,0,1.3c0,1.1-0.3,2.2-0.6,3.3
				c-0.3,1.2-0.7,2.4-1.1,3.6c-0.8,2.1-1.5,4.1-2.5,6.1c-0.1,0.2-0.1,0.4,0,0.6c0.4,0.7,0.8,1.3,1.2,2c0.4,0.6,0.7,1.2,1.1,1.8
				c0.1,0.1,0.1,0.2,0.2,0.4c0-0.1,0.1-0.2,0.1-0.3c0.3-0.9,0.6-1.8,0.9-2.7c0.3-1,0.7-2.1,1-3.1c0.3-1.1,0.7-2.1,0.9-3.2
				c0.4-1.6,0.8-3.1,1-4.7c0.1-1,0.2-1.9,0.2-2.9c0-0.7-0.1-1.3-0.4-2c-0.3-0.5-0.6-1-1-1.4c-0.5-0.5-1.1-0.9-1.8-1.2
				c-0.1,0-0.2-0.1-0.3-0.1c-0.5-0.1-1.1,0-1.6,0.1c-0.6,0.1-1.1,0.4-1.7,0.6c-0.6,0.3-1.2,0.7-1.7,1.1c-0.3,0.3-0.5,0.6-0.6,1
				c0,0.1-0.1,0.3-0.1,0.4c-0.3,1.2-0.1,2.3,0.4,3.4c0.3,0.6,0.7,1.1,1.2,1.5c0.8,0.7,1.7,1.3,2.6,1.9
				C152.3,46.7,152.4,46.8,152.5,46.8z M164.9,52.7c0-0.1,0-0.1,0-0.1c-0.2-0.6-0.4-1.3-0.6-1.9c-0.3-0.9-0.6-1.8-0.8-2.7
				c0-0.1-0.1-0.1-0.2-0.2c-0.4-0.1-0.8-0.3-1.2-0.4c-1.5-0.5-3-1.1-4.6-1.6c-0.1,0-0.1,0-0.2,0.1c-0.1,0.3-0.1,0.7-0.2,1
				c-0.2,0.7-0.3,1.4-0.5,2.1c0,0.1,0,0.1,0.1,0.1c0.2,0.1,0.3,0.1,0.5,0.2c1.2,0.5,2.5,1.1,3.7,1.6c1.3,0.6,2.6,1.1,3.9,1.7
				C164.8,52.7,164.9,52.7,164.9,52.7z"/>
		</g>
		<g>
			<path class="st1" d="M152.5,46.8c-0.1-0.1-0.2-0.1-0.3-0.2c-0.9-0.6-1.8-1.2-2.6-1.9c-0.5-0.4-0.9-0.9-1.2-1.5
				c-0.5-1.1-0.6-2.2-0.4-3.4c0-0.1,0.1-0.3,0.1-0.4c0.1-0.4,0.3-0.7,0.6-1c0.5-0.5,1.1-0.8,1.7-1.1c0.5-0.3,1.1-0.5,1.7-0.6
				c0.5-0.1,1-0.2,1.6-0.1c0.1,0,0.2,0.1,0.3,0.1c0.6,0.3,1.3,0.7,1.8,1.2c0.4,0.4,0.8,0.9,1,1.4c0.3,0.6,0.4,1.3,0.4,2
				c0,1-0.1,1.9-0.2,2.9c-0.2,1.6-0.5,3.2-1,4.7c-0.3,1.1-0.6,2.1-0.9,3.2c-0.3,1-0.7,2.1-1,3.1c-0.3,0.9-0.6,1.8-0.9,2.7
				c0,0.1-0.1,0.2-0.1,0.3c-0.1-0.1-0.2-0.3-0.2-0.4c-0.4-0.6-0.7-1.2-1.1-1.8c-0.4-0.7-0.8-1.4-1.2-2c-0.1-0.2-0.1-0.4,0-0.6
				c0.9-2,1.7-4.1,2.5-6.1c0.4-1.2,0.8-2.3,1.1-3.6c0.3-1.1,0.5-2.2,0.6-3.3c0-0.4,0-0.9,0-1.3c0-0.1,0-0.1-0.1-0.1
				c-0.5,0-1,0-1.5,0.1c-0.7,0.1-1.3,0.4-1.9,0.7c-0.6,0.4-1.1,0.8-1.6,1.4c-0.1,0.1,0,0.1,0,0.2c0.5,0.5,1,0.9,1.5,1.3
				c0.7,0.5,1.4,0.9,2.2,1.3c0.1,0.1,0.1,0.1,0.1,0.2c-0.3,0.9-0.5,1.7-0.8,2.6C152.5,46.8,152.6,46.8,152.5,46.8
				C152.5,46.8,152.5,46.8,152.5,46.8z"/>
		</g>
		<g>
			<path class="st1" d="M164.9,52.7c-0.1,0-0.1,0-0.1,0c-1.3-0.6-2.6-1.1-3.9-1.7c-1.2-0.5-2.5-1.1-3.7-1.6
				c-0.2-0.1-0.3-0.1-0.5-0.2c-0.1,0-0.1-0.1-0.1-0.1c0.2-0.7,0.3-1.4,0.5-2.1c0.1-0.3,0.1-0.7,0.2-1c0-0.1,0-0.1,0.2-0.1
				c1.5,0.5,3,1.1,4.6,1.6c0.4,0.1,0.8,0.3,1.2,0.4c0.1,0,0.1,0.1,0.2,0.2c0.3,0.9,0.6,1.8,0.8,2.7c0.2,0.6,0.4,1.3,0.6,1.9
				C164.9,52.6,164.9,52.6,164.9,52.7z"/>
		</g>
	</g>
</g>
</svg>
